<svg version="1.1" id="Layer_1" xmlns="http://www.w3.org/2000/svg" x="0" y="0" width="850" height="450" style="enable-background:new 0 0 850 450" xml:space="preserve"><style>.st1{fill:none;stroke:#1c2321;stroke-width:9px;stroke-linecap:round;stroke-linejoin:round;stroke-miterlimit:10}.st2{fill:#1c2321}.st3{fill:#49b293}</style><path style="fill:#edf7f4" d="M0 0h850v450H0z"/><path class="st1" d="m678.02 327.86 30.1 30.09-30.1 30.09M708.12 357.95H144.95"/><path class="st2" d="M146.59 329.21v6.31h-3.57v-15.09h3.57v5.75h3.66v-5.75h3.57v15.09h-3.57v-6.31h-3.66zM166.49 333.18v2.35h-9.67v-2.35h3.27v-6.86h-3.16v-2.35h6.6v9.21h2.96zm-3.01-13.33c0 1.11-.85 1.94-2.02 1.94-1.2 0-2.05-.83-2.05-1.94 0-1.09.85-1.94 2.05-1.94 1.17 0 2.02.85 2.02 1.94zM180.6 324.64c-.81.33-1.87.46-3.33.46 1.46.63 2.24 1.48 2.24 2.98 0 2.24-1.92 3.88-4.9 3.88-.5 0-.94-.04-1.35-.15a.79.79 0 0 0-.37.67c0 .35.15.7 1.26.7h1.92c2.68 0 4.4 1.42 4.4 3.35 0 2.37-2.09 3.83-6.18 3.83-4.44 0-5.6-1.44-5.6-3.72h3.05c0 1.02.44 1.46 2.63 1.46 2.18 0 2.68-.57 2.68-1.33 0-.7-.52-1.15-1.68-1.15h-1.83c-2.53 0-3.57-1.07-3.57-2.31 0-.83.48-1.66 1.31-2.18-1.48-.78-2.07-1.81-2.07-3.31 0-2.61 2.13-4.22 5.16-4.22 2.57.07 4.05-.65 5.44-1.48l.79 2.52zm-7.93 3.14c0 1.26.72 1.98 1.79 1.98 1.15 0 1.76-.67 1.76-2.02 0-1.31-.59-1.89-1.76-1.89-1.09-.01-1.79.73-1.79 1.93zM186.04 325.12c.98-1.04 2.11-1.55 3.4-1.55 2.05 0 3.18 1.26 3.18 3.46v8.49h-3.44V328c0-1.39-.26-1.87-1.11-1.87-.74 0-1.37.52-2.03 1.39v8.01h-3.44v-16.16l3.44-.35v6.1zM198.65 330.76c.24 1.89 1.31 2.63 2.79 2.63 1.04 0 2.05-.37 2.9-1.04l1.44 1.96c-1.09.94-2.66 1.59-4.62 1.59-3.96 0-6.01-2.55-6.01-6.14 0-3.42 2-6.18 5.6-6.18 3.35 0 5.47 2.22 5.47 5.94 0 .39-.02.89-.07 1.24h-7.5zm-.05-2.09h4.25c-.02-1.68-.59-2.79-2.07-2.79-1.24 0-2.02.87-2.18 2.79zM215.28 332.35c0-.74-.44-1.02-2.74-1.66-2.11-.57-3.57-1.48-3.57-3.53 0-2.07 1.76-3.59 5.01-3.59 2.05 0 3.55.59 4.68 1.42l-1.37 2.03c-.96-.59-2.09-.98-3.2-.98-1.13 0-1.65.28-1.65.89 0 .59.46.85 2.72 1.5 2.24.63 3.7 1.39 3.7 3.64 0 2.55-2.53 3.83-5.47 3.83-2.24 0-3.94-.7-5.14-1.74l1.72-1.94c.89.7 2.05 1.22 3.4 1.22 1.15 0 1.91-.35 1.91-1.09zM232.2 334.85c-.91.59-2.2 1.04-3.79 1.04-3.03 0-4.46-1.66-4.46-4.31v-5.25h-2.42v-2.37h2.42v-2.5l3.44-.41v2.92h3.72l-.35 2.37h-3.38v5.25c0 1.15.5 1.59 1.63 1.59.83 0 1.5-.22 2.05-.52l1.14 2.19z"/><path class="st3" d="M268.33 270.03H148.71c-2.08 0-3.76-1.68-3.76-3.76V122.14c0-2.08 1.68-3.76 3.76-3.76h119.62c2.08 0 3.76 1.68 3.76 3.76v144.13c.01 2.08-1.68 3.76-3.76 3.76z"/><path class="st2" d="M208.37 159.96c4.84 0 9.11.93 12.83 2.78 3.71 1.86 6.83 4.41 9.35 7.66 2.52 3.25 4.42 7.08 5.72 11.49 1.29 4.41 1.94 9.13 1.94 14.17 0 5.24-.66 10.09-1.99 14.57-1.33 4.47-3.28 8.35-5.87 11.63s-5.73 5.85-9.45 7.71c-3.71 1.85-7.96 2.78-12.73 2.78-4.84 0-9.1-.93-12.78-2.78a27.067 27.067 0 0 1-9.3-7.66c-2.52-3.25-4.42-7.08-5.72-11.49-1.29-4.41-1.94-9.13-1.94-14.17 0-5.24.66-10.09 1.99-14.57 1.33-4.47 3.26-8.35 5.82-11.63 2.55-3.28 5.68-5.85 9.4-7.71 3.72-1.85 7.96-2.78 12.73-2.78zm0 10.04c-2.78 0-5.19.53-7.21 1.59-2.02 1.06-3.7 2.4-5.02 4.03-1.33 1.62-2.39 3.46-3.18 5.52-.8 2.06-1.41 4.06-1.84 6.02-.43 1.96-.7 3.78-.8 5.47-.1 1.69-.15 3.03-.15 4.03 0 .66.03 1.53.1 2.59.06 1.06.18 2.2.35 3.43.17 1.23.4 2.54.7 3.93.3 1.39.71 2.78 1.24 4.18l26.65-36.59a14.173 14.173 0 0 0-4.62-3.08c-1.76-.75-3.83-1.12-6.22-1.12zm-.2 52.61c2.85 0 5.27-.53 7.26-1.59 1.99-1.06 3.65-2.4 4.97-4.03 1.33-1.62 2.39-3.45 3.18-5.47.8-2.02 1.41-4.03 1.84-6.02.43-1.99.7-3.81.8-5.47.1-1.66.15-2.98.15-3.98 0-1.33-.12-3.23-.35-5.72-.23-2.49-.81-5.05-1.74-7.71l-26.45 36.29c1.26 1.13 2.73 2.02 4.42 2.68 1.7.68 3.67 1.02 5.92 1.02zM192.26 88.06v.83h-4.98v-.83h2.06v-5h-2v-.82h3.05v5.82h1.87zm-1.95-8.2c0 .43-.3.75-.77.75-.46 0-.76-.32-.76-.75 0-.42.3-.75.76-.75.47 0 .77.33.77.75zM195.51 82.24l.08.92c.54-.68 1.42-1.08 2.2-1.08 1.3 0 1.87.73 1.87 1.97v4.83h-1.05v-4.05c0-1.37-.13-1.92-1.14-1.92-.8 0-1.47.59-1.81 1.11v4.86h-1.05v-6.65h.9zM204.79 87.26c0 .66.46.9 1.1.9.4 0 .76-.09 1.13-.23l.28.76c-.35.19-.9.34-1.58.34-1.16 0-1.97-.68-1.97-1.83v-6.82h-2.05v-.83h3.1v7.71zM215.04 88.06v.83h-4.98v-.83h2.06v-5h-2v-.82h3.05v5.82h1.87zm-1.95-8.2c0 .43-.3.75-.77.75-.46 0-.76-.32-.76-.75 0-.42.3-.75.76-.75s.77.33.77.75zM218.29 82.24l.08.92c.54-.68 1.42-1.08 2.2-1.08 1.3 0 1.87.73 1.87 1.97v4.83h-1.05v-4.05c0-1.37-.13-1.92-1.14-1.92-.8 0-1.47.59-1.81 1.11v4.86h-1.05v-6.65h.9zM225.81 85.93c.05 1.56.92 2.23 1.95 2.23.61 0 1.2-.15 1.78-.62l.49.72c-.62.48-1.45.77-2.28.77-1.95 0-3.05-1.39-3.05-3.47 0-2.01 1.14-3.48 2.86-3.48s2.75 1.25 2.75 3.28c0 .23-.01.43-.03.57h-4.47zm0-.81h3.49c-.03-1.43-.67-2.16-1.72-2.16-.95 0-1.68.69-1.77 2.16z"/><path class="st3" d="M413.67 270.03H294.05c-2.08 0-3.76-1.68-3.76-3.76V122.14c0-2.08 1.68-3.76 3.76-3.76h119.62c2.08 0 3.76 1.68 3.76 3.76v144.13c.01 2.08-1.68 3.76-3.76 3.76z"/><path class="st2" d="M353.71 159.96c4.84 0 9.11.93 12.83 2.78 3.71 1.86 6.83 4.41 9.35 7.66 2.52 3.25 4.42 7.08 5.72 11.49 1.29 4.41 1.94 9.13 1.94 14.17 0 5.24-.66 10.09-1.99 14.57-1.33 4.47-3.28 8.35-5.87 11.63s-5.73 5.85-9.45 7.71c-3.71 1.85-7.96 2.78-12.73 2.78-4.84 0-9.1-.93-12.78-2.78a27.067 27.067 0 0 1-9.3-7.66c-2.52-3.25-4.42-7.08-5.72-11.49-1.29-4.41-1.94-9.13-1.94-14.17 0-5.24.66-10.09 1.99-14.57 1.33-4.47 3.26-8.35 5.82-11.63 2.55-3.28 5.68-5.85 9.4-7.71 3.72-1.85 7.96-2.78 12.73-2.78zm0 10.04c-2.78 0-5.19.53-7.21 1.59-2.02 1.06-3.7 2.4-5.02 4.03-1.33 1.62-2.39 3.46-3.18 5.52-.8 2.06-1.41 4.06-1.84 6.02-.43 1.96-.7 3.78-.8 5.47-.1 1.69-.15 3.03-.15 4.03 0 .66.03 1.53.1 2.59.06 1.06.18 2.2.35 3.43.17 1.23.4 2.54.7 3.93.3 1.39.71 2.78 1.24 4.18l26.65-36.59a14.173 14.173 0 0 0-4.62-3.08c-1.76-.75-3.83-1.12-6.22-1.12zm-.2 52.61c2.85 0 5.27-.53 7.26-1.59 1.99-1.06 3.65-2.4 4.97-4.03 1.33-1.62 2.39-3.45 3.18-5.47.8-2.02 1.41-4.03 1.84-6.02.43-1.99.7-3.81.8-5.47.1-1.66.15-2.98.15-3.98 0-1.33-.12-3.23-.35-5.72-.23-2.49-.81-5.05-1.74-7.71l-26.45 36.29c1.26 1.13 2.73 2.02 4.42 2.68 1.7.68 3.67 1.02 5.92 1.02zM350.61 81.05v6.97h1.95v.87h-4.98v-.87h1.95v-6.97h-1.95v-.86h4.98v.86h-1.95zM356.91 88.89h-1.99v-8.7h1.85c2.04 0 4.07.68 4.07 4.3 0 3.66-2.12 4.4-3.93 4.4zm.13-7.82H356v6.94h1.05c1.25 0 2.64-.63 2.64-3.53 0-3.03-1.45-3.41-2.65-3.41z"/><path class="st3" d="M559.01 270.03H439.39c-2.08 0-3.76-1.68-3.76-3.76V122.14c0-2.08 1.68-3.76 3.76-3.76h119.62c2.08 0 3.76 1.68 3.76 3.76v144.13c.01 2.08-1.68 3.76-3.76 3.76z"/><path class="st2" d="M499.05 159.96c4.84 0 9.11.93 12.83 2.78 3.71 1.86 6.83 4.41 9.35 7.66 2.52 3.25 4.42 7.08 5.72 11.49 1.29 4.41 1.94 9.13 1.94 14.17 0 5.24-.66 10.09-1.99 14.57-1.33 4.47-3.28 8.35-5.87 11.63a27.758 27.758 0 0 1-9.45 7.71c-3.71 1.85-7.96 2.78-12.73 2.78-4.84 0-9.1-.93-12.78-2.78a27.067 27.067 0 0 1-9.3-7.66c-2.52-3.25-4.42-7.08-5.72-11.49-1.29-4.41-1.94-9.13-1.94-14.17 0-5.24.66-10.09 1.99-14.57s3.26-8.35 5.82-11.63c2.55-3.28 5.68-5.85 9.4-7.71 3.72-1.85 7.96-2.78 12.73-2.78zm0 10.04c-2.78 0-5.19.53-7.21 1.59-2.02 1.06-3.7 2.4-5.02 4.03-1.33 1.62-2.39 3.46-3.18 5.52-.79 2.06-1.41 4.06-1.84 6.02-.43 1.96-.7 3.78-.8 5.47s-.15 3.03-.15 4.03c0 .66.03 1.53.1 2.59.07 1.06.18 2.2.35 3.43.17 1.23.4 2.54.7 3.93.3 1.39.71 2.78 1.24 4.18l26.65-36.59a14.173 14.173 0 0 0-4.62-3.08c-1.76-.75-3.83-1.12-6.22-1.12zm-.2 52.61c2.85 0 5.27-.53 7.26-1.59 1.99-1.06 3.64-2.4 4.97-4.03 1.33-1.62 2.39-3.45 3.18-5.47.8-2.02 1.41-4.03 1.84-6.02.43-1.99.7-3.81.8-5.47.1-1.66.15-2.98.15-3.98 0-1.33-.12-3.23-.35-5.72-.23-2.49-.81-5.05-1.74-7.71l-26.45 36.29c1.26 1.13 2.73 2.02 4.42 2.68 1.7.68 3.67 1.02 5.92 1.02zM474.85 71.32l.51.73c-.58.49-1.47.8-2.25.8-1.99 0-3.11-1.35-3.11-3.44 0-2 1.14-3.5 3.12-3.5.86 0 1.59.27 2.23.78l-.53.72c-.56-.42-1.11-.62-1.71-.62-1.15 0-1.97.86-1.97 2.62 0 1.78.83 2.54 1.97 2.54.68.01 1.25-.23 1.74-.63zM480.28 71.08c0 .66.46.9 1.1.9.4 0 .76-.09 1.12-.23l.28.76c-.35.19-.9.34-1.58.34-1.16 0-1.97-.68-1.97-1.83V64.2h-2.05v-.83h3.1v7.71zM490.05 71.27c0 .53.18.73.54.85l-.25.75c-.57-.08-1.03-.35-1.21-.95-.48.62-1.23.94-2.09.94-1.34 0-2.15-.81-2.15-2.05 0-1.37 1.1-2.14 3.12-2.14h.97v-.56c0-.96-.59-1.32-1.58-1.32-.44 0-1.05.09-1.73.33l-.28-.78c.81-.3 1.52-.43 2.16-.43 1.66 0 2.49.83 2.49 2.15v3.21zm-1.06-.16v-1.72h-.96c-1.48 0-2.01.54-2.01 1.4 0 .83.42 1.27 1.29 1.27.65 0 1.28-.34 1.68-.95zM496.81 70.93c0-.61-.2-.94-1.61-1.29-1.39-.34-2.28-.75-2.28-1.91 0-1.11 1.02-1.82 2.52-1.82 1.08 0 1.86.33 2.42.75l-.47.71c-.49-.34-1.06-.59-1.92-.59-1.06 0-1.46.37-1.46.87 0 .61.42.81 1.77 1.18 1.3.35 2.16.81 2.16 2.06 0 1.42-1.38 1.97-2.81 1.97-1.2 0-2.02-.4-2.59-.9l.59-.68c.52.43 1.23.72 2.01.72 1.03-.01 1.67-.42 1.67-1.07zM504.4 70.93c0-.61-.2-.94-1.61-1.29-1.39-.34-2.28-.75-2.28-1.91 0-1.11 1.02-1.82 2.52-1.82 1.08 0 1.86.33 2.42.75l-.47.71c-.49-.34-1.06-.59-1.92-.59-1.06 0-1.46.37-1.46.87 0 .61.42.81 1.77 1.18 1.3.35 2.16.81 2.16 2.06 0 1.42-1.38 1.97-2.81 1.97-1.2 0-2.02-.4-2.59-.9l.59-.68c.52.43 1.23.72 2.01.72 1.04-.01 1.67-.42 1.67-1.07zM508.89 69.75c.05 1.56.92 2.23 1.95 2.23.61 0 1.2-.15 1.78-.62l.49.72c-.62.48-1.46.77-2.28.77-1.95 0-3.05-1.39-3.05-3.47 0-2.01 1.14-3.48 2.86-3.48s2.75 1.25 2.75 3.28c0 .23-.01.43-.03.57h-4.47zm0-.8h3.49c-.03-1.43-.67-2.16-1.72-2.16-.94-.01-1.68.69-1.77 2.16zM519.58 70.93c0-.61-.2-.94-1.61-1.29-1.39-.34-2.28-.75-2.28-1.91 0-1.11 1.02-1.82 2.52-1.82 1.08 0 1.86.33 2.42.75l-.47.71c-.49-.34-1.06-.59-1.92-.59-1.06 0-1.46.37-1.46.87 0 .61.42.81 1.77 1.18 1.3.35 2.16.81 2.16 2.06 0 1.42-1.38 1.97-2.81 1.97-1.2 0-2.02-.4-2.59-.9l.59-.68c.52.43 1.23.72 2.01.72 1.04-.01 1.67-.42 1.67-1.07zM526.8 71.65c0 .3-.06.59-.25.97l-1.02 2.35h-.95l.61-2.49c-.25-.19-.42-.51-.42-.83a1 1 0 0 1 1.01-1.01c.58 0 1.02.46 1.02 1.01zM463.48 86.46c0 .53.18.73.54.85l-.25.75c-.57-.08-1.02-.35-1.21-.95-.48.62-1.23.94-2.09.94-1.34 0-2.15-.81-2.15-2.05 0-1.37 1.1-2.14 3.12-2.14h.97v-.56c0-.96-.59-1.32-1.58-1.32-.44 0-1.05.09-1.73.33l-.28-.78c.81-.3 1.52-.43 2.16-.43 1.66 0 2.49.83 2.49 2.15v3.21zm-1.07-.17v-1.72h-.96c-1.48 0-2.01.54-2.01 1.4 0 .83.42 1.27 1.29 1.27.66 0 1.29-.34 1.68-.95zM471.59 87.57c-.46.29-1.16.47-1.78.47-1.42 0-2.23-.82-2.23-2v-3.98h-1.53v-.81h1.53v-1.52l1.05-.13v1.64h2.3l-.13.81h-2.18v3.97c0 .75.35 1.14 1.28 1.14.49 0 .91-.13 1.28-.32l.41.73zM479.18 87.57c-.46.29-1.16.47-1.78.47-1.42 0-2.23-.82-2.23-2v-3.98h-1.53v-.81h1.53v-1.52l1.05-.13v1.64h2.3l-.13.81h-2.18v3.97c0 .75.35 1.14 1.28 1.14.49 0 .91-.13 1.28-.32l.41.73zM481.41 87.06h1.56v-5h-1.56v-.82h2.47l.13 1.28c.39-.95 1.13-1.43 1.92-1.43.33 0 .56.03.87.1l-.19 1.04c-.29-.08-.49-.11-.77-.11-.9 0-1.59.87-1.82 1.8v3.15h1.87v.83h-4.48v-.84zM494.33 87.06v.83h-4.98v-.83h2.06v-5h-2v-.82h3.05v5.82h1.87zm-1.95-8.19c0 .43-.3.75-.77.75-.46 0-.76-.32-.76-.75 0-.42.3-.75.76-.75.47 0 .77.33.77.75zM497.73 82.11c.48-.65 1.14-1.01 1.9-1.01 1.78 0 2.5 1.38 2.5 3.47 0 2.02-.92 3.48-2.64 3.48-.77 0-1.37-.25-1.81-.83l-.08.7h-.92v-9.35l1.05-.13v3.67zm3.25 2.45c0-1.75-.54-2.62-1.58-2.62-.75 0-1.32.54-1.67 1.08v3.31c.35.53.9.86 1.52.86 1.11 0 1.73-.85 1.73-2.63zM505.32 85.96c0 .87.35 1.24 1.13 1.24.73 0 1.46-.49 1.81-1.06v-4.9h1.05v6.65h-.9l-.09-.9c-.52.67-1.35 1.04-2.12 1.04-1.29 0-1.92-.72-1.92-1.95v-4.84h1.05v4.72zM517.14 87.57c-.46.29-1.16.47-1.78.47-1.42 0-2.23-.82-2.23-2v-3.98h-1.53v-.81h1.53v-1.52l1.05-.13v1.64h2.3l-.13.81h-2.18v3.97c0 .75.35 1.14 1.28 1.14.49 0 .91-.13 1.28-.32l.41.73zM520.28 84.94c.05 1.56.92 2.23 1.95 2.23.61 0 1.2-.15 1.78-.62l.49.72c-.62.48-1.46.77-2.28.77-1.95 0-3.05-1.39-3.05-3.47 0-2.01 1.14-3.48 2.86-3.48s2.75 1.25 2.75 3.28c0 .23-.01.43-.03.57h-4.47zm0-.81h3.49c-.03-1.43-.67-2.16-1.72-2.16-.95 0-1.68.69-1.77 2.16zM530.97 86.12c0-.61-.2-.94-1.61-1.29-1.39-.34-2.28-.75-2.28-1.91 0-1.11 1.02-1.82 2.52-1.82 1.08 0 1.86.33 2.42.75l-.47.71c-.49-.34-1.06-.59-1.92-.59-1.06 0-1.46.37-1.46.87 0 .61.42.81 1.77 1.18 1.3.35 2.16.81 2.16 2.06 0 1.42-1.38 1.97-2.81 1.97-1.2 0-2.02-.4-2.59-.9l.59-.68c.52.43 1.23.72 2.01.72 1.04-.01 1.67-.43 1.67-1.07zM538.19 86.84c0 .3-.06.59-.25.97l-1.02 2.35h-.95l.61-2.49c-.25-.19-.42-.51-.42-.83a1 1 0 0 1 1.01-1.01c.57 0 1.02.45 1.02 1.01zM452.71 99.75c0 2.02-.83 3.48-2.57 3.48-.72 0-1.32-.25-1.76-.76v3.17l-1.05.13v-9.34h.88l.09.92c.49-.68 1.19-1.08 2-1.08 1.78.01 2.41 1.39 2.41 3.48zm-4.33-1.55v3.31c.34.52.9.83 1.53.83 1.11 0 1.67-.82 1.67-2.61 0-1.75-.48-2.62-1.53-2.62-.75.02-1.31.56-1.67 1.09zM458.84 101.3c0-.61-.2-.94-1.61-1.29-1.39-.34-2.28-.75-2.28-1.91 0-1.11 1.02-1.82 2.52-1.82 1.08 0 1.86.33 2.42.75l-.47.71c-.49-.34-1.06-.59-1.92-.59-1.06 0-1.45.37-1.45.87 0 .61.42.81 1.77 1.18 1.3.35 2.16.81 2.16 2.06 0 1.42-1.38 1.97-2.81 1.97-1.2 0-2.02-.4-2.59-.9l.59-.68c.52.43 1.23.72 2.01.72 1.03-.01 1.66-.42 1.66-1.07zM463.34 100.13c.05 1.56.92 2.23 1.95 2.23.61 0 1.2-.15 1.78-.62l.49.72c-.62.48-1.46.77-2.28.77-1.95 0-3.05-1.39-3.05-3.47 0-2.01 1.14-3.48 2.86-3.48s2.75 1.25 2.75 3.28c0 .23-.01.43-.03.57h-4.47zm0-.81h3.49c-.03-1.43-.67-2.16-1.72-2.16-.95-.01-1.68.69-1.77 2.16zM471.16 101.15c0 .87.35 1.24 1.13 1.24.73 0 1.46-.49 1.81-1.06v-4.9h1.05v6.65h-.9l-.09-.9c-.52.67-1.35 1.04-2.12 1.04-1.29 0-1.92-.72-1.92-1.95v-4.84h1.05v4.72zM482.74 103.09h-.92l-.1-.87c-.49.7-1.15 1.01-1.88 1.01-1.75 0-2.54-1.39-2.54-3.45 0-2.01.97-3.49 2.62-3.49.76 0 1.34.28 1.78.8v-3.47l1.05.13v9.34zm-4.3-3.33c0 1.73.56 2.62 1.61 2.62.76 0 1.29-.51 1.64-1.05v-3.34c-.35-.53-.9-.86-1.52-.86-1.12 0-1.73.87-1.73 2.63zM490.67 99.75c0 2.04-1 3.48-2.86 3.48-1.87 0-2.86-1.37-2.86-3.47 0-2.05 1-3.48 2.87-3.48s2.85 1.37 2.85 3.47zm-4.59.01c0 1.77.58 2.61 1.73 2.61s1.73-.83 1.73-2.62c0-1.77-.58-2.61-1.72-2.61-1.15 0-1.74.84-1.74 2.62zM497.62 98.67v.91h-4.43v-.91h4.43zM505.22 101.69l.51.73c-.58.49-1.47.8-2.25.8-1.99 0-3.11-1.35-3.11-3.44 0-2 1.14-3.5 3.12-3.5.86 0 1.59.27 2.23.78l-.53.72c-.56-.42-1.11-.62-1.71-.62-1.15 0-1.97.86-1.97 2.62 0 1.78.83 2.54 1.97 2.54.68.01 1.25-.23 1.74-.63zM510.65 101.45c0 .66.46.9 1.1.9.4 0 .76-.09 1.12-.23l.28.76c-.35.19-.9.34-1.58.34-1.16 0-1.97-.68-1.97-1.83v-6.82h-2.05v-.83h3.1v7.71zM520.42 101.64c0 .53.18.73.54.85l-.25.75c-.57-.08-1.03-.35-1.21-.95-.48.62-1.23.94-2.09.94-1.34 0-2.15-.81-2.15-2.05 0-1.37 1.1-2.14 3.12-2.14h.97v-.56c0-.96-.59-1.32-1.58-1.32-.44 0-1.05.09-1.73.33l-.28-.78c.81-.3 1.52-.43 2.16-.43 1.66 0 2.49.83 2.49 2.15v3.21zm-1.06-.16v-1.72h-.96c-1.48 0-2.01.54-2.01 1.4 0 .83.42 1.27 1.29 1.27.65 0 1.29-.34 1.68-.95zM527.18 101.3c0-.61-.2-.94-1.61-1.29-1.39-.34-2.28-.75-2.28-1.91 0-1.11 1.02-1.82 2.52-1.82 1.08 0 1.86.33 2.42.75l-.47.71c-.49-.34-1.06-.59-1.92-.59-1.06 0-1.46.37-1.46.87 0 .61.42.81 1.77 1.18 1.3.35 2.16.81 2.16 2.06 0 1.42-1.38 1.97-2.81 1.97-1.2 0-2.02-.4-2.59-.9l.59-.68c.52.43 1.23.72 2.01.72 1.03-.01 1.67-.42 1.67-1.07zM534.77 101.3c0-.61-.2-.94-1.61-1.29-1.39-.34-2.28-.75-2.28-1.91 0-1.11 1.02-1.82 2.52-1.82 1.08 0 1.86.33 2.42.75l-.47.71c-.49-.34-1.06-.59-1.92-.59-1.06 0-1.46.37-1.46.87 0 .61.42.81 1.77 1.18 1.3.35 2.16.81 2.16 2.06 0 1.42-1.38 1.97-2.81 1.97-1.2 0-2.02-.4-2.59-.9l.59-.68c.52.43 1.23.72 2.01.72 1.04-.01 1.67-.42 1.67-1.07zM539.26 100.13c.05 1.56.92 2.23 1.95 2.23.61 0 1.2-.15 1.78-.62l.49.72c-.62.48-1.46.77-2.28.77-1.95 0-3.05-1.39-3.05-3.47 0-2.01 1.14-3.48 2.86-3.48s2.75 1.25 2.75 3.28c0 .23-.01.43-.03.57h-4.47zm0-.81h3.49c-.03-1.43-.67-2.16-1.72-2.16-.94-.01-1.68.69-1.77 2.16zM549.96 101.3c0-.61-.2-.94-1.61-1.29-1.39-.34-2.28-.75-2.28-1.91 0-1.11 1.02-1.82 2.52-1.82 1.08 0 1.86.33 2.42.75l-.47.71c-.49-.34-1.06-.59-1.92-.59-1.06 0-1.46.37-1.46.87 0 .61.42.81 1.77 1.18 1.3.35 2.16.81 2.16 2.06 0 1.42-1.38 1.97-2.81 1.97-1.2 0-2.02-.4-2.59-.9l.59-.68c.52.43 1.23.72 2.01.72 1.03-.01 1.67-.42 1.67-1.07z"/><path class="st3" d="M704.35 270.8H584.73c-2.08 0-3.76-1.68-3.76-3.76V122.9c0-2.08 1.68-3.76 3.76-3.76h119.62c2.08 0 3.76 1.68 3.76 3.76v144.13a3.758 3.758 0 0 1-3.76 3.77z"/><path class="st2" d="M644.39 160.73c4.84 0 9.11.93 12.83 2.78 3.71 1.86 6.83 4.41 9.35 7.66 2.52 3.25 4.42 7.08 5.72 11.49 1.29 4.41 1.94 9.13 1.94 14.17 0 5.24-.66 10.09-1.99 14.57-1.33 4.47-3.28 8.35-5.87 11.63a27.758 27.758 0 0 1-9.45 7.71c-3.71 1.85-7.96 2.78-12.73 2.78-4.84 0-9.1-.93-12.78-2.78a27.067 27.067 0 0 1-9.3-7.66c-2.52-3.25-4.42-7.08-5.72-11.49-1.29-4.41-1.94-9.13-1.94-14.17 0-5.24.66-10.09 1.99-14.57s3.26-8.35 5.82-11.63c2.55-3.28 5.68-5.85 9.4-7.71 3.72-1.86 7.96-2.78 12.73-2.78zm0 10.04c-2.78 0-5.19.53-7.21 1.59-2.02 1.06-3.7 2.4-5.02 4.03-1.33 1.62-2.39 3.46-3.18 5.52-.79 2.06-1.41 4.06-1.84 6.02-.43 1.96-.7 3.78-.8 5.47s-.15 3.03-.15 4.03c0 .66.03 1.53.1 2.59.07 1.06.18 2.2.35 3.43.17 1.23.4 2.54.7 3.93.3 1.39.71 2.78 1.24 4.18l26.65-36.59a14.173 14.173 0 0 0-4.62-3.08c-1.76-.76-3.83-1.12-6.22-1.12zm-.2 52.6c2.85 0 5.27-.53 7.26-1.59 1.99-1.06 3.64-2.4 4.97-4.03 1.33-1.62 2.39-3.45 3.18-5.47.8-2.02 1.41-4.03 1.84-6.02.43-1.99.7-3.81.8-5.47.1-1.66.15-2.98.15-3.98 0-1.33-.12-3.23-.35-5.72-.23-2.49-.81-5.05-1.74-7.71l-26.45 36.29c1.26 1.13 2.73 2.02 4.42 2.68 1.7.69 3.67 1.02 5.92 1.02zM612.47 70.52c.05 1.56.92 2.23 1.95 2.23.61 0 1.2-.15 1.78-.62l.49.72c-.62.48-1.46.77-2.28.77-1.95 0-3.05-1.39-3.05-3.47 0-2.01 1.14-3.48 2.86-3.48s2.75 1.25 2.75 3.28c0 .23-.01.43-.03.57h-4.47zm0-.81h3.49c-.03-1.43-.67-2.16-1.72-2.16-.94 0-1.68.69-1.77 2.16zM621.83 71.85c0 .66.46.9 1.1.9.4 0 .76-.09 1.12-.23l.28.76c-.35.19-.9.34-1.58.34-1.16 0-1.97-.68-1.97-1.83v-6.82h-2.05v-.83h3.1v7.71zM627.66 70.52c.05 1.56.92 2.23 1.95 2.23.61 0 1.2-.15 1.78-.62l.49.72c-.62.48-1.46.77-2.28.77-1.95 0-3.05-1.39-3.05-3.47 0-2.01 1.14-3.48 2.86-3.48s2.75 1.25 2.75 3.28c0 .23-.01.43-.03.57h-4.47zm0-.81h3.49c-.03-1.43-.67-2.16-1.72-2.16-.95 0-1.68.69-1.77 2.16zM640.1 68.52v4.96h-.97V68.7c0-.85-.04-1.2-.52-1.2-.39 0-.8.24-1.16.81v5.17h-.99V68.7c0-.85-.04-1.2-.52-1.2-.42 0-.8.24-1.16.81v5.17h-.97v-6.65h.82l.06.77c.37-.52.78-.92 1.46-.92.51 0 1 .2 1.2.89.37-.52.79-.89 1.47-.89.62 0 1.28.31 1.28 1.84zM642.84 70.52c.05 1.56.92 2.23 1.95 2.23.61 0 1.2-.15 1.78-.62l.49.72c-.62.48-1.46.77-2.28.77-1.95 0-3.05-1.39-3.05-3.47 0-2.01 1.14-3.48 2.86-3.48s2.75 1.25 2.75 3.28c0 .23-.01.43-.03.57h-4.47zm0-.81h3.49c-.03-1.43-.67-2.16-1.72-2.16-.94 0-1.68.69-1.77 2.16zM650.51 66.83l.08.92c.54-.68 1.42-1.08 2.2-1.08 1.3 0 1.87.73 1.87 1.97v4.83h-1.05v-4.05c0-1.37-.13-1.92-1.14-1.92-.8 0-1.47.59-1.81 1.11v4.86h-1.05v-6.65h.9zM662.48 73.15c-.46.29-1.16.47-1.78.47-1.42 0-2.23-.82-2.23-2v-3.98h-1.53v-.81h1.53v-1.52l1.05-.13v1.64h2.3l-.13.81h-2.18v3.97c0 .75.35 1.14 1.28 1.14.49 0 .91-.13 1.28-.32l.41.73zM668.72 71.7c0-.61-.2-.94-1.61-1.29-1.39-.34-2.28-.75-2.28-1.91 0-1.11 1.02-1.82 2.52-1.82 1.08 0 1.86.33 2.42.75l-.47.71c-.49-.34-1.06-.59-1.92-.59-1.06 0-1.46.37-1.46.87 0 .61.42.81 1.77 1.18 1.3.35 2.16.81 2.16 2.06 0 1.42-1.38 1.97-2.81 1.97-1.2 0-2.02-.4-2.59-.9l.59-.68c.52.43 1.23.72 2.01.72 1.04-.01 1.67-.43 1.67-1.07zM675.93 72.42c0 .3-.06.59-.25.97l-1.02 2.35h-.95l.61-2.49c-.25-.19-.42-.51-.42-.83a1 1 0 0 1 1.01-1.01c.58 0 1.02.45 1.02 1.01zM594.25 85.33c0 2.02-.83 3.48-2.57 3.48-.72 0-1.32-.25-1.76-.76v3.17l-1.05.13v-9.34h.89l.09.92c.49-.68 1.19-1.08 2-1.08 1.77.01 2.4 1.39 2.4 3.48zm-4.33-1.55v3.31c.34.52.9.83 1.53.83 1.11 0 1.67-.82 1.67-2.61 0-1.75-.48-2.62-1.53-2.62-.74.02-1.31.56-1.67 1.09zM600.39 86.88c0-.61-.2-.94-1.61-1.29-1.39-.34-2.28-.75-2.28-1.91 0-1.11 1.03-1.82 2.52-1.82 1.08 0 1.86.33 2.42.75l-.47.71c-.49-.34-1.06-.59-1.92-.59-1.06 0-1.46.37-1.46.87 0 .61.42.81 1.77 1.18 1.3.35 2.16.81 2.16 2.06 0 1.42-1.38 1.97-2.81 1.97-1.2 0-2.02-.4-2.59-.9l.59-.68c.52.43 1.23.72 2.01.72 1.04-.01 1.67-.42 1.67-1.07zM604.88 85.71c.05 1.56.92 2.23 1.95 2.23.61 0 1.2-.15 1.78-.62l.49.72c-.62.48-1.46.77-2.28.77-1.95 0-3.05-1.39-3.05-3.47 0-2.01 1.14-3.48 2.86-3.48s2.75 1.25 2.75 3.28c0 .23-.01.43-.03.57h-4.47zm0-.81h3.49c-.03-1.43-.67-2.16-1.72-2.16-.95-.01-1.68.69-1.77 2.16zM612.7 86.73c0 .87.35 1.24 1.13 1.24.73 0 1.46-.49 1.81-1.06v-4.9h1.05v6.65h-.9l-.09-.9c-.52.67-1.35 1.04-2.12 1.04-1.29 0-1.92-.72-1.92-1.95v-4.84h1.05v4.72zM624.28 88.67h-.92l-.1-.87c-.49.7-1.15 1.01-1.88 1.01-1.75 0-2.54-1.39-2.54-3.45 0-2.01.97-3.49 2.62-3.49.76 0 1.34.28 1.78.8V79.2l1.05.13v9.34zm-4.3-3.33c0 1.73.56 2.62 1.61 2.62.76 0 1.29-.51 1.64-1.05v-3.34c-.35-.53-.9-.86-1.52-.86-1.11 0-1.73.87-1.73 2.63zM632.21 85.33c0 2.04-1 3.48-2.86 3.48-1.87 0-2.86-1.37-2.86-3.47 0-2.05 1-3.48 2.87-3.48s2.85 1.37 2.85 3.47zm-4.59.01c0 1.77.58 2.61 1.73 2.61s1.73-.83 1.73-2.62c0-1.77-.58-2.61-1.72-2.61-1.14 0-1.74.84-1.74 2.62zM639.16 84.25v.91h-4.43v-.91h4.43zM642.84 85.71c.05 1.56.92 2.23 1.95 2.23.61 0 1.2-.15 1.78-.62l.49.72c-.62.48-1.46.77-2.28.77-1.95 0-3.05-1.39-3.05-3.47 0-2.01 1.14-3.48 2.86-3.48s2.75 1.25 2.75 3.28c0 .23-.01.43-.03.57h-4.47zm0-.81h3.49c-.03-1.43-.67-2.16-1.72-2.16-.94-.01-1.68.69-1.77 2.16zM652.2 87.03c0 .66.46.9 1.1.9.4 0 .76-.09 1.12-.23l.28.76c-.35.19-.9.34-1.58.34-1.16 0-1.97-.68-1.97-1.83v-6.82h-2.05v-.83h3.1v7.71zM658.03 85.71c.05 1.56.92 2.23 1.95 2.23.61 0 1.2-.15 1.78-.62l.49.72c-.62.48-1.46.77-2.28.77-1.95 0-3.05-1.39-3.05-3.47 0-2.01 1.14-3.48 2.86-3.48s2.75 1.25 2.75 3.28c0 .23-.01.43-.03.57h-4.47zm0-.81h3.49c-.03-1.43-.67-2.16-1.72-2.16-.95-.01-1.68.69-1.77 2.16zM670.47 83.71v4.96h-.97v-4.78c0-.85-.04-1.2-.52-1.2-.39 0-.8.24-1.16.81v5.17h-.99v-4.78c0-.85-.04-1.2-.52-1.2-.42 0-.8.24-1.16.81v5.17h-.97v-6.65h.82l.06.77c.37-.52.78-.92 1.46-.92.51 0 1 .2 1.2.89.37-.52.79-.89 1.47-.89.62-.01 1.28.31 1.28 1.84zM673.21 85.71c.05 1.56.92 2.23 1.95 2.23.61 0 1.2-.15 1.78-.62l.49.72c-.62.48-1.46.77-2.28.77-1.95 0-3.05-1.39-3.05-3.47 0-2.01 1.14-3.48 2.86-3.48s2.75 1.25 2.75 3.28c0 .23-.01.43-.03.57h-4.47zm0-.81h3.49c-.03-1.43-.67-2.16-1.72-2.16-.94-.01-1.68.69-1.77 2.16zM680.88 82.01l.08.92c.54-.68 1.42-1.08 2.2-1.08 1.3 0 1.87.73 1.87 1.97v4.83h-1.05V84.6c0-1.37-.13-1.92-1.14-1.92-.8 0-1.47.59-1.81 1.11v4.86h-1.05V82h.9zM692.85 88.34c-.46.29-1.16.47-1.78.47-1.42 0-2.23-.82-2.23-2v-3.98h-1.53v-.81h1.53V80.5l1.05-.13v1.64h2.3l-.13.81h-2.18v3.97c0 .75.35 1.14 1.28 1.14.49 0 .91-.13 1.28-.32l.41.73zM699.09 86.88c0-.61-.2-.94-1.61-1.29-1.39-.34-2.28-.75-2.28-1.91 0-1.11 1.02-1.82 2.52-1.82 1.08 0 1.86.33 2.42.75l-.47.71c-.49-.34-1.06-.59-1.92-.59-1.06 0-1.46.37-1.46.87 0 .61.42.81 1.77 1.18 1.3.35 2.16.81 2.16 2.06 0 1.42-1.38 1.97-2.81 1.97-1.2 0-2.02-.4-2.59-.9l.59-.68c.52.43 1.23.72 2.01.72 1.04-.01 1.67-.42 1.67-1.07zM589.44 320.44v12.28h6.53l-.35 2.81h-9.75v-15.09h3.57zM609.05 329.72c0 3.88-2.07 6.18-5.62 6.18-3.55 0-5.62-2.26-5.62-6.16 0-3.68 2.07-6.16 5.62-6.16 3.58 0 5.62 2.43 5.62 6.14zm-7.68.02c0 2.57.65 3.64 2.07 3.64s2.07-1.07 2.07-3.66c0-2.5-.65-3.59-2.07-3.59s-2.07 1.08-2.07 3.61zM616.57 328.15h-.09l-1 7.38h-3.72l-1.72-11.56h3.16l.7 9.06h.09l1.2-7.6h2.87l1.04 7.56h.09l.74-9.01h3.05l-1.66 11.56h-3.79l-.96-7.39zM627.54 330.76c.24 1.89 1.31 2.63 2.79 2.63 1.04 0 2.05-.37 2.9-1.04l1.44 1.96c-1.09.94-2.66 1.59-4.62 1.59-3.96 0-6.01-2.55-6.01-6.14 0-3.42 2-6.18 5.6-6.18 3.35 0 5.47 2.22 5.47 5.94 0 .39-.02.89-.07 1.24h-7.5zm-.04-2.09h4.25c-.02-1.68-.59-2.79-2.07-2.79-1.25 0-2.03.87-2.18 2.79zM644.17 332.35c0-.74-.44-1.02-2.74-1.66-2.11-.57-3.57-1.48-3.57-3.53 0-2.07 1.76-3.59 5.01-3.59 2.05 0 3.55.59 4.68 1.42l-1.37 2.03c-.96-.59-2.09-.98-3.2-.98-1.13 0-1.66.28-1.66.89 0 .59.46.85 2.72 1.5 2.24.63 3.7 1.39 3.7 3.64 0 2.55-2.53 3.83-5.46 3.83-2.24 0-3.94-.7-5.14-1.74l1.72-1.94c.89.7 2.05 1.22 3.4 1.22 1.15 0 1.91-.35 1.91-1.09zM661.09 334.85c-.91.59-2.2 1.04-3.79 1.04-3.03 0-4.46-1.66-4.46-4.31v-5.25h-2.42v-2.37h2.42v-2.5l3.44-.41v2.92H660l-.35 2.37h-3.38v5.25c0 1.15.5 1.59 1.63 1.59.83 0 1.5-.22 2.05-.52l1.14 2.19z"/></svg>